<svg width="512" height="512" viewBox="0 0 512 512" fill="none" xmlns="http://www.w3.org/2000/svg">
<path d="M181.358 423.73C151.535 422.667 138.315 420.799 127.45 416.115C110.814 408.943 96.7907 393.953 90.7812 376.918C85.12 360.871 84.1361 338.928 84.5757 238.515C84.8238 181.847 85.0278 172.525 86.3435 157.724C87.7701 141.675 90.9158 131.512 97.5867 121.399C102.877 113.379 109.657 106.533 117.449 101.342C129.211 93.5053 139.404 90.7898 163.994 88.9418C174.572 88.1468 309.067 87.7653 327.506 88.4779C344.053 89.1174 356.273 90.1348 363 91.433C376.445 94.0275 386.904 99.4067 396.611 108.72C409.377 120.968 415.403 132.867 417.884 150.73C419.232 160.436 419.62 167.299 420.163 191.005C420.806 219.139 420.459 329.447 419.689 341.494C418.257 363.878 416.601 372.604 411.869 382.707C405.781 395.701 393.551 408.295 380.805 414.692C370.484 419.872 359.611 421.961 336.43 423.22C325.15 423.832 196.128 424.257 181.358 423.73ZM331.847 397.705C346.403 397.098 356.731 396.101 361.84 394.811C375.38 391.39 387.722 379.069 391.21 365.49C394.005 354.609 394.574 340.167 394.879 272.279C395.209 199.024 394.519 165.942 392.377 152.398C390.624 141.312 386.869 134.132 379.027 126.871C371.925 120.295 364.812 117.147 354.035 115.807C344.345 114.602 331.117 114.128 290.608 113.535C237.818 112.762 168.782 113.771 152.901 115.547C138.549 117.153 130.276 121.34 121.78 131.297C115.083 139.146 112.67 146.73 111.452 163.753C110.367 178.926 109.865 221.062 110.121 275.655C110.469 350.174 111.195 361.604 116.255 372.314C118.273 376.585 122.768 382.512 126.252 385.497C138.128 395.67 146.052 397.26 189.476 398.182C213.378 398.69 316.526 398.344 331.847 397.705Z" fill="#F2F2F2"/>
</svg>
