<?xml version="1.0" encoding="UTF-8" standalone="no"?>
<!-- Created with Inkscape (http://www.inkscape.org/) -->

<svg
   width="512"
   height="512"
   viewBox="0 0 135.46666 135.46667"
   version="1.1"
   id="svg5"
   xml:space="preserve"
   xmlns="http://www.w3.org/2000/svg"
   xmlns:svg="http://www.w3.org/2000/svg"><defs
     id="defs2" /><g
     id="layer1"
     style="display:none"><path
       style="fill:#ff6600;stroke-width:0.100903"
       d="M 6.5348802,106.90725 C 6.7547753,95.688963 7.8359375,87.638128 10.164963,79.875954 14.595209,65.110831 23.221889,55.031656 35.401517,50.390263 c 3.481866,-1.326868 6.848187,-2.123212 11.216737,-2.653455 1.831019,-0.222247 9.841205,-0.357815 21.702974,-0.367318 l 8.365422,-0.0067 v 4.464939 4.464935 l -7.36772,0.07177 c -4.052248,0.03949 -9.83146,0.0735 -12.842693,0.07559 -3.011233,0.0019 -6.365713,0.047 -7.454396,0.09979 -3.83922,0.186153 -8.152723,1.126091 -11.779302,2.566782 -8.512705,3.381749 -14.954036,10.449848 -18.616436,20.427889 -2.43633,6.63767 -3.76316,14.210906 -4.147537,23.673165 -0.05671,1.39612 -0.127053,3.08524 -0.15631,3.7536 l -0.0532,1.21518 H 10.38953 6.5100014 Z"
       id="path331" /><path
       style="fill:#f2f2f2;stroke-width:0.10925"
       d="m 64.344162,107.8254 c 0.0029,-0.91586 0.233176,-5.91923 0.334319,-7.26416 0.781998,-10.398266 3.03857,-19.125993 6.954094,-26.896271 2.742405,-5.442253 5.532586,-9.266789 9.575918,-13.125844 3.1352,-2.992306 6.265469,-5.189634 10.021442,-7.034672 5.631092,-2.766138 11.609435,-4.191326 18.815915,-4.485541 l 1.66955,-0.06816 0.0455,2.149491 c 0.0475,2.242526 -0.0271,5.493618 -0.12828,5.591755 -0.0322,0.03127 -1.12617,0.134166 -2.43095,0.228631 -1.30479,0.09446 -2.89443,0.245341 -3.53256,0.335284 -7.927063,1.117302 -14.486377,4.346194 -19.80921,9.751307 -7.317237,7.430329 -11.900992,19.061737 -13.116706,33.28399 -0.115443,1.35048 -0.326111,5.93751 -0.331146,7.21014 l -0.0029,0.67511 H 68.376077 64.34292 Z"
       id="path402" /></g><g
     id="layer2"
     style="display:none" /><g
     id="layer3"
     style="display:none"
     transform="matrix(1.1932955,0,0,1.1932955,-12.006569,-6.5898587)"><path
       style="fill:#ff6600;stroke-width:0.263878"
       d="m 51.644224,363.91051 c -1.153161,-0.0996 -1.887995,-0.29563 -2.063196,-0.55047 -0.291869,-0.42454 -0.15929,-13.94999 0.301336,-30.74179 1.671193,-60.92222 8.950754,-98.7165 23.698481,-123.03862 11.389185,-18.78317 29.160405,-29.96752 55.191635,-34.73495 9.49694,-1.7393 16.08596,-2.27524 30.14806,-2.4522 l 11.80854,-0.1486 v 14.11038 14.11038 l -9.3017,0.16412 c -10.11581,0.1785 -14.36342,0.43335 -21.04427,1.26263 -16.33372,2.02746 -28.83759,6.95668 -36.08366,14.22471 -6.757865,6.77835 -11.79998,16.84465 -16.007433,31.95795 -5.098572,18.31421 -7.986693,40.07266 -9.383162,70.6906 -0.239095,5.24221 -0.653368,23.15717 -0.889504,38.46593 -0.05433,3.52262 -0.1457,6.44507 -0.203033,6.49434 -0.196523,0.16889 -24.379463,0.34038 -26.172094,0.18559 z"
       id="path1221"
       transform="scale(0.26458333)" /><path
       style="fill:#f2f2f2;stroke-width:0.263878"
       d="m 145.79261,363.97101 c -2.36953,-0.20641 -2.24317,-0.0341 -2.24126,-3.05687 0.004,-6.29023 1.07855,-22.29298 1.84635,-27.49621 1.73308,-11.74475 4.62344,-20.26054 9.19259,-27.08384 4.09599,-6.11671 7.75974,-9.47249 16.75136,-15.34325 12.4832,-8.15047 14.78419,-9.94768 19.8476,-15.50218 10.49134,-11.50887 15.8872,-22.86335 18.43737,-38.79767 0.53903,-3.36808 0.89016,-15.93884 1.11408,-39.88537 l 0.1818,-19.44243 1.87113,-0.14184 c 1.02913,-0.078 8.16463,-0.20954 15.85668,-0.29229 7.69204,-0.0827 26.86938,-0.32235 42.6163,-0.53245 15.74692,-0.2101 29.35472,-0.38379 30.23956,-0.38598 l 1.60879,-0.004 0.16277,23.81499 c 0.19994,29.25414 0.49086,34.97393 2.18876,43.03417 3.41772,16.22452 14.14749,32.561 27.35198,41.64442 1.33961,0.92152 4.81121,3.20472 7.71467,5.07377 8.44035,5.43333 12.79971,8.98896 16.30488,13.29878 6.16733,7.58312 10.27527,18.4842 11.9053,31.59263 0.80118,6.44292 1.46776,18.5764 1.47505,26.84958 l 0.002,2.83669 h -12.24571 -12.2457 l -0.15135,-2.44087 c -0.0832,-1.34248 -0.22111,-4.40016 -0.30636,-6.79486 -0.52723,-14.80926 -2.25548,-25.75573 -5.09221,-32.25307 -1.83732,-4.20829 -4.64022,-6.79254 -13.23467,-12.20231 -11.02782,-6.94146 -16.99112,-11.7373 -22.98503,-18.48515 -14.43607,-16.25191 -22.54378,-34.36666 -24.6224,-55.01294 -0.57088,-5.67041 -0.89901,-13.32494 -1.11137,-25.92602 l -0.18122,-10.75303 H 257.01813 235.9914 l -0.17225,10.48915 c -0.32003,19.48699 -1.02618,28.55307 -2.86206,36.74502 -3.91417,17.46553 -11.15642,31.39323 -23.36306,44.92988 -5.24365,5.815 -11.54896,11.00085 -19.64413,16.15649 -10.33201,6.58023 -12.71839,8.48987 -14.95803,11.96972 -3.30113,5.12917 -5.32346,15.19538 -6.10425,30.38409 -0.14548,2.83009 -0.26565,6.40556 -0.26704,7.94548 -10e-4,1.53992 -0.078,3.35079 -0.17033,4.02414 l -0.16781,1.22428 -10.71716,-0.0444 c -5.89444,-0.0244 -11.19214,-0.0857 -11.77267,-0.13631 z"
       id="path1225"
       transform="scale(0.26458333)" /><path
       style="fill:#ff6600;stroke-width:0.263878"
       d="m 437.59651,363.92381 c -1.62132,-0.0924 -3.03134,-0.25199 -3.13339,-0.3547 -0.10204,-0.10271 -0.34332,-8.11801 -0.53618,-17.81177 -0.49845,-25.05387 -0.97573,-35.70036 -2.23924,-49.95008 -3.54982,-40.03452 -11.37685,-66.60513 -23.29563,-79.08221 -1.28373,-1.34388 -3.12428,-3.0263 -4.0901,-3.73871 -6.70274,-4.94412 -17.08254,-8.73165 -29.33732,-10.70499 -7.52881,-1.21234 -19.12935,-1.89405 -27.89908,-1.63949 l -5.60741,0.16276 v -14.51834 -14.51834 l 2.70475,0.13595 c 1.48762,0.0748 5.73275,0.1993 9.43364,0.27673 12.56541,0.26287 20.42023,0.9274 28.49883,2.41103 23.99802,4.40722 40.82077,13.61135 52.02198,28.46249 15.32147,20.314 23.88913,53.35363 26.99463,104.09988 0.87732,14.33619 1.45882,33.6011 1.46356,48.48759 l 0.003,8.24619 -7.32262,10e-4 c -4.02744,5.3e-4 -8.98505,0.0464 -11.01691,0.10199 -2.03186,0.0556 -5.02082,0.0254 -6.64214,-0.0669 z"
       id="path1227"
       transform="scale(0.26458333)" /></g><path
     style="fill:#ff8700;fill-opacity:1;stroke-width:0.116181"
     d="m 20.780704,98.201715 c 0.250785,-6.218166 0.901395,-10.760728 2.400326,-16.759063 1.626321,-6.508122 3.844699,-12.422547 6.754425,-18.008004 3.196164,-6.135296 6.902095,-10.510422 11.117262,-13.124751 2.633737,-1.633496 6.238211,-3.027818 9.736818,-3.766505 3.32146,-0.701284 2.972789,-0.685631 16.420983,-0.737233 8.062114,-0.03093 13.04857,-0.004 14.311482,0.0772 6.633615,0.426707 12.870749,2.654224 17.173482,6.133299 6.571708,5.313714 12.634608,17.200017 15.898358,31.168704 1.20746,5.16789 1.8232,9.708174 1.95767,14.43545 l 0.0719,2.526928 h -4.00204 -4.00204 l -0.14279,-2.643109 c -0.23434,-4.337786 -0.66083,-7.849733 -1.41491,-11.651007 -1.36044,-6.857888 -3.36238,-12.958138 -6.04191,-18.410742 -2.979945,-6.063901 -5.870457,-9.438315 -9.616246,-11.226107 -1.400836,-0.668589 -3.796961,-1.433817 -5.810395,-1.855608 -1.636691,-0.342865 -1.883823,-0.362553 -5.718847,-0.455575 -5.049991,-0.122491 -17.440733,-0.124008 -22.48096,-0.0028 -3.998709,0.0962 -4.526592,0.156835 -7.14511,0.820664 -5.943957,1.506876 -8.996495,3.943998 -12.437748,9.930191 -3.541019,6.15974 -6.495523,14.891017 -7.941598,23.46934 -0.562094,3.334422 -0.825862,5.969881 -1.066853,10.659578 l -0.07015,1.365125 h -4.014787 -4.014788 z"
     id="path1341" /><path
     style="fill:#f9f9f9;fill-opacity:1;stroke-width:0.116181"
     d="M 13.8255,52.699531 C 12.355815,51.854383 10.821821,50.951927 10.416625,50.694074 L 9.6799047,50.225248 11.171799,49.350816 c 0.820542,-0.480935 2.418174,-1.403775 3.550293,-2.050758 l 2.058399,-1.17633 h 9.455004 c 5.200253,0 9.851155,0.03349 10.33534,0.07441 l 0.880337,0.07442 -0.438877,0.361262 c -0.241382,0.198694 -1.087107,0.856154 -1.879389,1.461026 -1.832163,1.39877 -4.62589,4.184584 -5.332563,5.317456 l -0.522814,0.838126 -6.389936,-0.0071 -6.389937,-0.0071 L 13.8255,52.69951 Z"
     id="path1806" /><path
     style="fill:#f9f9f9;fill-opacity:1;stroke-width:0.116181"
     d="m 107.54228,53.414065 c -1.18991,-1.755534 -2.73398,-3.271491 -5.80546,-5.69976 -1.42887,-1.129638 -1.738387,-1.423834 -1.56844,-1.490808 0.11645,-0.04589 4.75384,-0.08711 10.30533,-0.0916 l 10.0936,-0.0082 3.46804,1.982206 c 1.90743,1.090215 3.49603,2.027494 3.53024,2.082839 0.0693,0.112189 -1.36069,0.989661 -4.61834,2.833857 l -2.17933,1.233744 h -6.32736 -6.32736 z"
     id="path1808" /></svg>
