<svg width="512" height="512" viewBox="0 0 512 512" fill="none" xmlns="http://www.w3.org/2000/svg">
<path d="M174.85 424.747C147.565 423.897 138.052 422.329 126.555 416.784C106.195 406.966 91.6167 387.818 87.7894 365.871C85.6438 353.567 85.1854 329.557 85.4953 245.707C85.8103 160.466 85.9793 155.34 88.886 142.858C94.6277 118.201 116.66 96.9084 141.778 91.7416C154.269 89.1722 166.518 88.8547 253.462 88.8469C340.283 88.8391 350.872 89.1108 364.502 91.6966C387.718 96.1005 408.604 114.465 416.397 137.326C420.477 149.294 421.377 163.723 421.947 226.318C422.374 273.161 421.418 344.043 420.189 356.751C418.651 372.645 415.989 380.833 408.804 391.775C401.456 402.966 391.927 411.28 379.81 417.072C368.576 422.442 359.959 423.776 329.959 424.788C307.169 425.557 199.953 425.528 174.85 424.747ZM345.275 398.687C363.215 397.528 371.279 394.807 379.898 387.007C387.731 379.919 392.475 371.267 394.097 361.111C395.648 351.404 396.215 323.543 396.215 256.988C396.215 173.516 395.558 154.777 392.279 144.717C389.774 137.034 381.662 127.243 373.561 122.127C364.28 116.265 359.386 115.54 322.204 114.511C288.307 113.574 174.945 114.088 160.044 115.247C146.724 116.283 143.604 116.963 136.787 120.319C132.083 122.634 129.591 124.483 125.14 128.963C118.471 135.676 114.853 142.254 113.169 150.729C111.277 160.251 110.71 184.759 110.71 256.988C110.71 328.869 111.266 353.263 113.128 363.121C115.216 374.173 122.301 384.442 132.376 391.019C142.533 397.649 148.681 398.643 184.368 399.424C217.603 400.152 330.623 399.634 345.275 398.687Z" fill="#F2F2F2"/>
<path d="M164.252 367.134C154.116 364.852 145.853 356.671 143.507 346.596C141.976 340.024 141.922 181.438 143.448 175.049C145.827 165.091 154.659 156.605 164.849 154.487C172.58 152.88 334.351 152.875 341.986 154.481C348.826 155.92 354.553 159.908 358.943 166.289C364.717 174.682 364.507 171.114 364.507 261.064C364.506 327.908 364.351 340.191 363.453 344.462C361.641 353.076 357.931 358.745 351.231 363.139C342.788 368.676 346.834 368.461 252.506 368.391C177.216 368.335 169.072 368.22 164.252 367.134ZM340.028 347.115C344.442 344.223 344.139 350.315 344.282 261.516C344.425 172.844 344.672 178.214 340.308 174.982C338.364 173.543 337.537 173.504 304.438 173.306L270.558 173.104L271.13 174.717C271.444 175.603 271.819 191.066 271.963 209.079C272.187 237.166 272.064 242.55 271.098 246.892C269.616 253.555 265.442 259.642 259.539 263.75C252.03 268.976 249.587 269.202 204.814 268.818C183.875 268.639 165.711 268.263 164.451 267.982L162.159 267.472V304.237C162.159 343.802 162.236 344.695 165.801 346.707C166.707 347.217 169.668 347.841 172.383 348.093C175.097 348.344 213.5 348.507 257.724 348.455C333.262 348.365 338.245 348.284 340.028 347.115ZM247.822 247.89C252.348 245.625 252.402 245.192 252.404 211.382C252.405 178.133 252.319 177.339 248.441 174.798C246.595 173.588 244.056 173.509 207.282 173.509C170.509 173.509 167.969 173.588 166.124 174.798C162.247 177.337 162.159 178.146 162.159 211.229C162.159 242.997 162.305 244.676 165.282 247.145C167.31 248.827 175.003 249.145 211.16 249.045C240.334 248.963 246.036 248.784 247.822 247.89Z" fill="#F2F2F2"/>
</svg>
