<svg width="312" height="305" viewBox="0 0 312 305" fill="none" xmlns="http://www.w3.org/2000/svg">
<g clip-path="url(#clip0_1_2)">
<g filter="url(#filter0_d_1_2)">
<path d="M273 10H39C25.1929 10 14 21.1929 14 35V262C14 275.807 25.1929 287 39 287H273C286.807 287 298 275.807 298 262V35C298 21.1929 286.807 10 273 10Z" stroke="#86B535" stroke-width="20"/>
</g>
<path d="M235 20V10H225H38C24.7452 10 14 20.7452 14 34V216V226H24H211C224.255 226 235 215.255 235 202V20Z" stroke="#86B535" stroke-width="20"/>
<path d="M158 20V10H148H41C26.0883 10 14 22.0883 14 37V139V149H24H144C151.732 149 158 142.732 158 135V20Z" stroke="#86B535" stroke-width="20"/>
</g>
<defs>
<filter id="filter0_d_1_2" x="0" y="0" width="312" height="305" filterUnits="userSpaceOnUse" color-interpolation-filters="sRGB">
<feFlood flood-opacity="0" result="BackgroundImageFix"/>
<feColorMatrix in="SourceAlpha" type="matrix" values="0 0 0 0 0 0 0 0 0 0 0 0 0 0 0 0 0 0 127 0" result="hardAlpha"/>
<feOffset dy="4"/>
<feGaussianBlur stdDeviation="2"/>
<feComposite in2="hardAlpha" operator="out"/>
<feColorMatrix type="matrix" values="0 0 0 0 0 0 0 0 0 0 0 0 0 0 0 0 0 0 0.25 0"/>
<feBlend mode="normal" in2="BackgroundImageFix" result="effect1_dropShadow_1_2"/>
<feBlend mode="normal" in="SourceGraphic" in2="effect1_dropShadow_1_2" result="shape"/>
</filter>
<clipPath id="clip0_1_2">
<rect width="312" height="305" fill="white"/>
</clipPath>
</defs>
</svg>
