<svg width="512" height="512" viewBox="0 0 512 512" fill="none" xmlns="http://www.w3.org/2000/svg">
<path d="M374.034 308.672C374.034 315.259 374.955 321.66 374.955 328.259C374.955 331.114 376.254 338.826 374.239 341.208C372.795 342.915 371.768 346.245 371.222 348.281C370.58 350.671 368.442 350.621 367.386 352.743C361.984 363.6 349.514 376.332 337.676 379.131C330.267 380.883 321.873 380.109 314.358 379.077C309.455 378.404 304.641 376.894 299.802 375.613M299.802 375.613C297.927 375.116 296.048 374.654 294.159 374.289C290.936 373.665 291.898 374.541 288.739 375.051C280.567 376.368 270.683 377.361 262.455 376.193C260.587 375.928 260.269 377.167 258.261 377.989C250.591 381.128 242.471 383.269 234.33 384.844C233.226 385.058 232.111 385.314 230.988 385.588M299.802 375.613C298.42 376.765 297.072 377.946 295.796 379.186C294.67 380.279 293.738 381.942 292.114 382.124C286.889 382.709 281.708 383.27 276.364 383.593C271.841 383.866 266.94 383.649 262.557 385.062C261.028 385.555 260.468 386.064 258.926 385.552C253.863 383.868 249.029 384.456 243.841 384.844C239.561 385.164 235.276 385.407 230.988 385.588M299.802 375.613C303.049 372.905 306.482 370.352 309.602 367.542C316.723 361.132 319.923 353.231 322.949 343.929C326.379 333.385 330.597 323.547 336.807 314.548C342.269 306.632 347.609 297.63 355.369 291.968C357.858 290.153 370.565 285.939 370.864 282.447C370.893 282.103 369.76 281.688 369.636 281.25C369.263 279.927 371.073 277.846 371.58 276.788C373.025 273.769 376.294 269.915 376.744 266.559C377.573 260.388 376.604 253.86 376.795 247.734C376.884 244.914 379.472 242.549 380.273 239.899C381.482 235.896 379.262 231.077 380.068 226.786C382.325 214.782 386 203.988 386 191.584C386 183.837 382.122 177.693 380.017 170.527C378.646 165.86 376.553 161.664 374.443 157.306C373.6 155.564 371.958 151.238 370.352 150.233C364.628 146.651 364.193 139.694 356.545 139.242C354.032 139.094 351.356 136.75 348.773 136.25C346.375 135.786 343.13 133.73 340.898 132.604C339.207 131.752 335.982 134.346 333.994 134.346C330.34 134.346 326.194 131.813 322.795 130.428C318.459 128.661 312.291 124.243 307.761 124.008C304.617 123.845 300.888 126.281 297.585 126.456C290.831 126.816 284.995 129.188 278.409 130.863C255.37 136.725 233.956 146.592 209.477 145.88C205.654 145.769 202.858 146.487 201.705 142.942C200.801 140.163 198.445 138.132 197.358 135.434C197.336 135.378 197.312 135.323 197.287 135.269M230.988 385.588C226.572 386.664 222.039 388 217.608 388C213.923 388 210.275 386.895 206.601 386.04M230.988 385.588C223.072 385.921 215.147 386.041 207.227 386.041C207.019 386.041 206.81 386.041 206.601 386.04M206.601 386.04C204.286 385.501 201.96 385.062 199.608 385.062C195.627 385.062 192.183 383.103 188.102 383.103C185.307 383.103 177.125 385.062 179.921 385.062C188.699 385.062 197.686 385.997 206.601 386.04ZM197.287 135.269C196.341 133.216 193.493 131.926 191.528 131.462C188.422 130.727 197.838 132.347 200.989 132.822C205.919 133.566 210.5 134.414 215.191 134.907M197.287 135.269C198.972 134.57 200.204 133.208 201.909 133.856C205.414 135.188 210.45 135.26 215.191 134.907M197.287 135.269C197.193 135.308 197.097 135.345 197 135.379C189.469 138.05 180.615 140.045 172.659 140.222C168.836 140.306 165.027 140.156 161.205 140.439C154.781 140.915 144.604 143.006 138.551 139.786C137.833 139.404 137.97 159.305 137.273 160.788C135.241 165.111 132.618 169.431 131.034 174.064C129.735 177.865 129.193 180.805 129.193 185C129.193 195.6 128.619 206.369 129.398 216.938C130.086 226.271 130.016 235.824 129.091 245.177C128.272 253.451 122.75 261.567 122.75 269.497C122.75 276.403 119.966 283.484 121.421 290.336C122.401 294.958 125.198 299.545 127.148 303.775L127.289 304.082C129.788 309.5 132.613 315.625 132.926 321.621C133.363 329.979 137.932 338.54 140.034 346.649C140.743 349.382 140.665 352.579 141.21 355.191C142.157 359.725 144.693 364.821 147.602 368.358C151.544 373.152 157.806 378.847 164.171 379.186C166.572 379.314 169.186 378.761 171.534 379.403C173.485 379.937 173.646 381.144 175.83 381.144C182.211 381.144 189.51 383.722 195.671 381.362C198.101 380.431 197.556 376.605 200.068 375.268M215.191 134.907C217.633 135.164 220.104 135.325 222.671 135.325C226.149 135.325 230.938 136.31 234.33 135.107C236.584 134.308 238.81 133.056 241.077 132.027M215.191 134.907C218.423 134.667 221.517 134.228 223.898 133.856C229.396 132.996 235.262 132.423 241.077 132.027M241.077 132.027C242.554 131.356 244.049 130.779 245.58 130.483C247.047 130.199 257.242 131.261 253.25 131.407C249.318 131.552 245.21 131.745 241.077 132.027ZM204.481 292.241C204.708 289.499 206.549 284.665 208.728 283.35C210.586 282.229 211.283 281.627 212.456 280.212C213.176 279.343 214.883 280.148 215.836 279.061C217.284 277.411 218.416 275.73 219.536 274.474M219.536 274.474C221.524 272.245 223.478 271.355 227.105 274.354C231.683 278.14 236.069 281.893 240.801 285.442C241.727 286.137 242.649 286.916 243.576 287.725M219.536 274.474C226.189 278.26 232.614 282.61 239.5 285.861C240.854 286.499 242.213 287.121 243.576 287.725M219.536 274.474C217.718 273.439 215.882 272.447 214.016 271.53C210.198 269.655 205.643 271.218 202.141 269.438C201.459 269.091 199.276 268.14 199.063 267.241C198.366 264.294 196.717 261.355 195.379 258.664C191.841 251.548 185.439 246.303 180.514 240.672C178.492 238.361 177.703 237.309 175.226 236.645C168.001 234.708 164.166 230.412 159.233 224.459C156.471 221.125 154.751 217.603 151.779 214.835C149.414 212.634 144.866 207.573 143.63 204.218C143.235 203.143 142.305 202.236 141.4 201.356M243.576 287.725C246.822 290.557 250.125 293.75 253.89 294.961C254.626 295.198 256.232 295.377 256.75 294.595C257.127 294.026 257.906 293.786 258.886 293.748M243.576 287.725C248.618 289.96 253.726 291.961 258.886 293.748M258.886 293.748C261.672 293.641 266.079 295.178 267.455 295.484C270.266 296.109 276.42 299.098 269.666 297.158C266.051 296.119 262.456 294.985 258.886 293.748ZM141.4 201.356C140.769 200.743 140.149 200.144 139.73 199.511C137.899 196.75 139.839 199.098 141.4 201.356ZM141.4 201.356C142.047 202.292 142.629 203.212 142.85 203.747M305.118 189.626C305.07 189.633 305.022 189.649 304.975 189.672M304.975 189.672C303.916 190.192 303.188 194.571 302.431 195.745C301.212 197.637 303.563 201.986 304.338 198.517C304.965 195.716 305.138 192.741 304.975 189.672ZM304.975 189.672C304.314 177.185 298.092 163.142 294.196 152.91C293.182 150.247 291.673 147.882 290.69 145.28M290.69 145.28C290.546 144.9 290.414 144.515 290.296 144.124C290.247 143.961 286.63 140.7 286.395 140.672C282.67 140.222 278.833 137.011 275.17 137.011C273.625 137.011 271.185 137.848 269.232 137.848C264.171 137.848 259.554 135.963 254.41 135.076C250.778 134.45 248.576 131.725 245.221 130.525C243.226 129.812 238.51 133.228 236.683 134.03C234.209 135.115 232.069 136.21 229.445 136.697C225.821 137.37 222.718 137.145 219.217 138.318C213.009 140.399 206.229 141.613 199.8 141.613C194.737 141.613 190.112 143.496 184.978 143.496C180.673 143.496 178.005 139.73 173.666 139.73C169.337 139.73 163.951 141.627 160.967 145.588C158.201 149.259 153.117 151.631 151.432 156.205C149.504 161.439 150.762 164.405 151.432 170.065C152.715 180.904 148.311 190.306 148.311 200.871C148.311 212.97 144.051 225.026 143.674 237.325C143.06 257.332 136.355 276.409 130.542 294.961C129.696 297.661 126.95 302.597 130.758 302.597C135.839 302.597 138.522 314.567 139.903 318.81C140.959 322.055 140.481 327.04 142.46 329.428C144.226 331.559 145.045 334.315 146.751 336.488C149.833 340.414 151.507 345.416 154.552 349.616C158.987 355.732 172.858 362.848 178.39 362.848C181.481 362.848 183.816 365.49 186.538 365.672C189.708 365.885 192.897 365.649 196.073 365.882C203.342 366.415 210.211 369.689 217.353 370.327C224.718 370.986 231.471 365.973 238.807 365.672C242.36 365.527 245.743 364.731 249.295 364.731C254.291 364.731 259.323 363.791 264.551 366.614C268.975 369.002 275.487 367.555 280.241 367.555H297.317C304.241 367.555 311.038 365.985 317.861 363.79C324.513 361.649 330.966 350.578 333.593 343.601C334.163 342.088 335.081 341.118 335.847 339.783C337.465 336.963 336.84 331.791 337.624 328.538C338.324 325.631 339.486 322.911 340.224 320.013C341.021 316.888 343.836 314.905 345.079 311.907C348.013 304.823 351.668 298.4 354.874 291.509C355.958 289.178 358.948 285.203 358.948 282.356C358.948 278.909 362.068 276.093 362.068 272.262C362.068 262.454 356.607 254.553 356.607 245.065C356.607 229.974 353.487 215.106 353.487 200.034C353.487 196.343 355.132 185.663 351.926 183.245C348.825 180.906 344.614 181.563 341.785 178.329C338.708 174.812 336.272 166.425 334.937 161.592C333.358 155.875 330.03 151.208 325.922 147.837C323.551 145.892 321.137 141.104 318.771 139.835C317.218 139.002 315.249 139.069 313.613 138.214C311.652 137.188 308.851 134.082 306.679 134.082C304.988 134.082 301.914 137.032 300.438 137.795C297.432 139.35 295.877 141.407 292.636 141.613C291.8 141.666 291.157 143.527 290.69 145.28ZM290.69 145.28C290.384 146.427 290.154 147.528 289.992 148.046C289.1 150.918 289.887 152.283 291.076 154.793M150.652 378.852C149.126 378.852 145.038 379.727 143.804 378.643C141.963 377.028 141.823 374.465 140.337 372.472C138.87 370.505 135.227 368.557 134.442 366.405C133.369 363.462 132.946 360.175 132.275 356.938C129.62 344.124 126.882 328.326 128.851 315.254C129.33 312.08 131.313 310.43 129.978 306.886C129.028 304.364 131.093 296.519 131.148 293.392C131.252 287.527 133.618 281.764 135.006 276.237C136.808 269.062 138.61 261.933 140.51 254.794C142.609 246.907 144.115 239.211 146.231 231.258C147.651 225.918 145.538 220.299 143.63 215.567C141.162 209.444 139.98 202.703 136.566 197.21C134.114 193.264 130.753 190.711 127.941 187.22C126.099 184.934 129.083 180.733 130.021 178.695C132.849 172.554 134.269 168.65 134.269 161.854C134.269 154.386 135.565 151.296 138.95 145.17C142.626 138.515 148.479 138.697 154.726 140.358C160.558 141.909 169.225 144.309 173.622 149.982C179.37 157.396 183.897 166.737 188.532 175.191C192.251 181.975 196.837 189.716 198.847 197.576C202.377 211.386 200.228 226.111 204.048 239.94C205.456 245.039 206.979 250.153 208.208 255.317C208.586 256.903 208.919 261.112 210.375 262.116C211.304 262.756 212.29 262.728 213.062 261.697C216.65 256.913 219.414 249.925 222.467 244.595C228.121 234.726 233.216 224.798 238.027 214.312C241.717 206.268 247.138 196.717 253.716 191.666C255.876 190.007 258.28 188.886 260.798 188.103M260.798 188.103C265.913 186.511 271.493 186.318 276.427 185.86C283.795 185.176 292.781 181.524 300.091 183.245C302.737 183.868 300.229 186.058 301.218 187.952C301.373 188.249 301.519 188.532 301.658 188.803M260.798 188.103C260.98 188.14 261.162 188.177 261.344 188.214C271.941 190.345 282.582 184.214 293.243 184.971C296.594 185.209 299.348 186.617 301.658 188.803M260.798 188.103C252.746 186.443 245.335 184.02 237.68 180.212C227.976 175.384 219.579 167.916 210.115 162.586C203.668 158.955 196.501 156.994 190.179 153.433C187.245 151.782 187.318 156.116 187.318 158.559M301.658 188.803C303.583 192.568 303.865 193.937 301.998 198.308C298.568 206.335 298.816 216.884 298.097 225.662C297.181 236.856 295.032 247.773 296.537 259.03C297.328 264.951 296.821 270.46 295.757 276.237C294.164 284.884 297.438 294.582 301.174 302.022C304.05 307.747 307.346 314.537 309.797 320.784M301.658 188.803C309.087 195.832 311.922 210.898 315.26 220.902C317.843 228.642 320.642 236.34 323.259 244.095M309.797 320.784C310.069 321.476 310.33 322.161 310.579 322.838C312.586 328.285 315.036 334.098 319.768 336.488C319.901 336.556 320.034 336.622 320.165 336.688M309.797 320.784C309.857 320.526 309.916 320.269 309.973 320.013C312.127 310.307 314.858 301.075 317.861 291.509C322.629 276.319 314.826 258.448 322.888 244.647C322.937 244.564 323.066 244.371 323.259 244.095M309.797 320.784C307.646 330.02 303.459 340.308 298.444 347.681C296.445 350.62 291.62 351.722 288.822 352.493C276.255 355.953 262.392 355.929 249.599 354.741C239.986 353.849 232.148 348.653 222.944 346.321C220.65 345.739 218.396 346.103 216.096 345.85C210.168 345.2 205.6 336.401 201.1 332.409C198.6 330.19 193.739 328.957 190.699 328.957C183.428 328.957 178.618 329.546 185.801 338.214C187.616 340.404 190.253 341.63 192.592 342.718L192.692 342.764C200.942 346.601 209.547 349.381 218.09 352.074C221.334 353.097 227.677 356.532 231.352 355.265C235.683 353.771 241.045 356.258 245.871 356.258C264.708 356.258 283.586 354.375 302.475 354.375C307.87 354.375 313.134 353.679 318.404 353.132M320.165 336.688C321.522 337.364 322.779 337.937 324.188 338.423C324.708 338.603 324.962 340.598 325.402 341.195C325.846 341.799 326.476 343.5 326.139 341.666C325.279 336.995 323.368 332.698 322.801 327.806C322.761 327.458 322.722 327.11 322.685 326.763M320.165 336.688C319.107 342.053 318.523 347.497 318.404 353.132M320.165 336.688C320.822 333.358 321.661 330.058 322.685 326.763M322.685 326.763C320.324 304.6 324.428 282.934 324.622 260.965C324.648 257.964 325.204 255.221 326.025 252.592M322.685 326.763C322.957 325.89 323.241 325.018 323.538 324.145C329.615 306.307 335.853 288.459 344.905 272.681C347.055 268.933 338.228 270.589 336.497 270.589C332.71 270.589 332.601 269.26 330.256 266.091C327.934 262.952 327.566 257.607 326.399 253.8C326.275 253.397 326.151 252.994 326.025 252.592M326.025 252.592C327.654 247.377 330.328 242.61 331.99 237.168C334.516 228.893 325.301 241.175 323.259 244.095M326.025 252.592C325.14 249.749 324.212 246.918 323.259 244.095M318.404 353.132C322.162 352.741 325.923 352.426 329.736 352.493C334.731 352.58 339.699 356.199 330.603 354.898C326.276 354.28 322.195 353.003 318.398 353.4M318.404 353.132C318.402 353.221 318.4 353.311 318.398 353.4M318.398 353.4C316.025 353.649 313.762 354.551 311.619 356.677C309.145 359.131 307.089 362.74 304.938 366.178M318.398 353.4C318.387 354.037 318.381 354.675 318.381 355.317C318.381 357.165 318.062 357.494 316.82 358.35C312.89 361.061 308.934 363.645 304.938 366.178M304.938 366.178C301.739 371.292 298.33 376.028 293.026 376.028C287.252 376.028 296.252 371.594 297.88 370.589C300.249 369.125 302.601 367.66 304.938 366.178ZM201.36 229.166C200.297 229.487 198.554 245.664 199.41 247.524C200.32 249.5 195.392 249.611 194.166 250.086C185.938 253.278 185.982 246.812 182.29 238.894C178.446 230.647 175.654 222.312 172.495 213.737C171.387 210.726 170.155 209.297 170.155 205.63C170.155 199.238 169.375 192.867 169.375 186.383C169.375 181.34 169.284 175.354 165.431 172.157C164.058 171.018 160.481 165.717 160.013 170.797C159.895 172.077 158.361 173.995 157.673 175.034C155.371 178.506 156.056 187.274 152.645 189.626C149.039 192.113 149.091 199.483 149.091 203.747M135.049 217.869C131.077 223.261 131.866 234.453 132.882 241.195C133.473 245.115 135.049 249.208 135.049 253.172C135.049 255.717 134.269 257.718 134.269 260.233C134.269 264.813 134.297 273.839 136.436 277.388C139.301 282.141 137.021 291.45 139.903 295.798C142.082 299.084 143.055 306.74 144.237 310.861C145.862 316.525 148.311 322.733 148.311 328.748C148.311 335.361 149.522 337.612 152.039 343.078C153.494 346.24 156.064 345.663 158.496 347.315C160.984 349.003 163.983 349.13 166.774 348.518C170.859 347.621 175.074 348.613 179.083 347.733C181.724 347.154 183.838 346.273 186.538 347.576C188.097 348.329 189.997 347.643 191.652 348.308C193.321 348.98 195.048 349.985 196.666 350.882M196.666 350.882C196.787 350.949 196.907 351.015 197.026 351.08L197.046 351.091C198.826 352.067 201.153 353.344 203.094 353.434C203.179 353.438 203.265 353.442 203.349 353.445M196.666 350.882C196.613 350.931 196.56 350.979 196.506 351.028C195.091 352.321 193.322 353.726 191.457 354.754M196.666 350.882C208.206 340.281 215.669 327.05 225.458 314.574C234.326 303.271 242.251 294.581 243.314 278.329C243.76 271.522 243.953 264.838 245.221 258.141C247.1 248.225 250.831 239.15 253.803 229.689C259.223 212.432 262.211 196.086 262.211 177.754V143.13C262.211 142.52 261.659 139.547 260.651 140.358C259.442 141.33 259.175 145.549 258.917 146.948C257.854 152.722 257.202 158.554 256.577 164.417C256.021 169.624 255.516 174.814 255.233 180.055C255.004 184.295 255.481 190.074 253.846 194.019C251.723 199.144 242.939 202.291 238.807 204.218C234.654 206.155 231.166 209.736 227.018 211.488C223.001 213.185 218.465 213.569 214.623 215.777C212.676 216.896 218.276 220.073 219.304 220.693M203.349 353.445C204.685 353.501 205.952 353.505 207.176 353.434M203.349 353.445C203.597 353.438 203.83 353.434 204.048 353.434H207.176M203.349 353.445C200.393 353.534 195.426 354.132 191.457 354.754M207.176 353.434C211.073 353.206 214.532 352.211 218.35 349.668C220.367 348.326 222.486 348.351 224.504 346.792C227.902 344.168 231.672 341.907 235.296 339.783C241.054 336.408 245.877 334.244 251.896 331.99C257.551 329.873 264.766 330.408 270.012 333.664C273.3 335.704 276.338 339.238 279.04 342.817M207.176 353.434H218.567C224.533 353.434 230.521 354.046 236.538 354.572M279.04 342.817C280.379 344.59 281.635 346.375 282.798 347.995C283.719 349.277 283.847 348.445 282.321 348.936C276.69 350.748 270.486 350.954 264.725 352.283C257.578 353.932 250.248 353.53 243.149 355.08M279.04 342.817C278.85 342.931 278.672 343.004 278.507 343.026C273.629 343.68 268.722 342.241 263.858 342.241C258.218 342.241 252.963 345.698 247.865 348.204C244.077 350.066 239.986 351.815 236.538 354.572M279.04 342.817C280.693 341.821 283.192 337.671 284.662 336.488C288.233 333.615 290.987 328.672 294.283 325.191C298.257 320.996 306.562 315.381 312.14 315.777C313.586 315.88 314.48 323.213 314.48 324.721C314.48 331.105 309.381 333.819 307.069 338.842C305.932 341.312 307.614 344.652 305.899 346.844C305.61 347.213 305.335 347.522 305.078 347.778M243.149 355.08C242.232 355.281 241.319 355.514 240.411 355.788C238.711 356.3 232.356 358.422 235.08 355.84C235.55 355.394 236.037 354.972 236.538 354.572M243.149 355.08C245.496 355.224 247.848 355.317 250.206 355.317C256.56 355.317 262.594 356.258 268.842 356.258C273.251 356.258 277.269 358.141 281.714 358.141C285.568 358.141 289.189 357.2 292.983 357.2C296.574 357.2 303.509 357.632 306.289 354.794C306.777 354.295 312.762 348.653 311.793 347.995C310.369 347.028 306.887 347.699 305.078 347.778M243.149 355.08C240.941 354.945 238.738 354.764 236.538 354.572M305.078 347.778C302.561 350.286 301.675 347.785 304.772 347.785C304.867 347.785 304.97 347.783 305.078 347.778ZM191.457 354.754C186.764 355.489 183.465 356.258 186.538 356.258C188.137 356.258 189.833 355.649 191.457 354.754ZM195.9 306.363C183.787 306.363 168.377 293.074 164.737 279.166C164.065 276.597 163.169 275.975 164.261 274.145C166.181 270.926 169.377 270.555 172.409 269.595C176.572 268.277 186.398 267.719 189.485 263.528C190.448 262.221 187.668 256.001 187.318 254.584C183.708 239.977 186.202 222.697 184.891 207.67C184.509 203.286 179.472 186.138 184.458 183.768C187.398 182.37 189.64 181.386 192.172 179.27C193.115 178.483 195.639 177.754 196.246 176.812C199.694 171.463 199.822 162.368 203.397 157.095C203.825 156.464 204.228 155.851 204.621 155.265M204.621 155.265C206.637 152.26 208.393 149.938 211.849 149.354C213.517 149.072 214.799 149.432 215.981 149.801M204.621 155.265C206.51 154.322 208.498 152.232 210.375 151.551C211.655 151.086 213.835 150.399 215.981 149.801M204.621 155.265C204.043 155.554 203.474 155.735 202.921 155.735C199.212 155.735 196.511 150.475 191.999 151.08C184.828 152.041 177.708 154.636 170.588 153.12C166.785 152.31 162.597 148.203 158.843 148.203C155.753 148.203 156.948 149.533 154.162 151.028C152.796 151.76 151.242 156.849 150.825 158.559C149.772 162.879 148.212 166.249 145.971 169.856M215.981 149.801C217.763 150.356 219.321 150.93 221.644 149.354C223.795 147.893 219.946 148.696 215.981 149.801ZM318.381 287.534C316.352 287.534 316.016 287.35 315.26 285.024C312.159 275.481 308.321 266.281 304.142 257.281M304.142 257.281C298.921 246.036 293.167 235.102 287.652 224.197C287.372 223.644 285.688 220.239 283.586 215.881M304.142 257.281C303.641 257.943 303.106 258.567 302.518 259.135C300.26 261.314 299.193 262.237 297.924 265.358C295.572 271.145 295.066 278.734 288.736 276.237C284.006 274.371 281.856 273.359 281.714 267.555C281.529 259.954 278.958 252.073 279.417 244.595C279.855 237.471 283.199 231.497 283.275 224.145C283.303 221.381 283.437 218.63 283.586 215.881M304.142 257.281C306.905 253.628 308.589 248.828 311.966 246.112C321.466 238.469 322.213 224.795 319.984 212.691C318.926 206.942 322.498 202.453 319.594 196.268C317.098 190.953 318.229 186.827 317.557 181.153C317.164 177.829 316.187 174.935 316.04 171.739C315.898 168.643 314.829 166.09 312.92 166.09C312.479 166.09 307.508 159.483 306.679 158.768C302.853 155.471 302.039 159.6 303.558 163.266M283.586 215.881C279.185 206.759 272.949 193.46 273.913 193.392C275.989 193.244 276.955 191.393 278.897 190.672C285.676 188.155 284.055 198.75 284.055 203.8C284.055 207.842 283.804 211.859 283.586 215.881ZM273.133 155.735C272.957 153.543 271.986 152.846 272.093 152.858C278.626 153.575 286.081 151.761 292.203 149.249C298.276 146.757 303.49 142.403 309.019 138.632C310.328 137.739 309.33 138.996 309.366 139.73C309.409 140.614 311.563 142.522 311.966 143.496C312.672 145.199 312.942 147.317 313.7 149.145M336.324 261.174H340.224" stroke="white" stroke-width="64" stroke-linecap="round"/>
<path d="M174.85 424.747C147.565 423.897 138.052 422.329 126.555 416.784C106.195 406.966 91.6167 387.818 87.7894 365.871C85.6438 353.567 85.1854 329.557 85.4953 245.707C85.8103 160.466 85.9793 155.34 88.886 142.858C94.6277 118.201 116.66 96.9084 141.778 91.7416C154.269 89.1722 166.518 88.8547 253.462 88.8469C340.283 88.8391 350.872 89.1108 364.502 91.6966C387.718 96.1005 408.604 114.465 416.397 137.326C420.477 149.294 421.377 163.723 421.947 226.318C422.374 273.161 421.418 344.043 420.189 356.751C418.651 372.645 415.989 380.833 408.804 391.775C401.456 402.966 391.927 411.28 379.81 417.072C368.576 422.442 359.959 423.776 329.959 424.788C307.169 425.557 199.953 425.528 174.85 424.747ZM345.275 398.687C363.215 397.528 371.279 394.807 379.898 387.007C387.731 379.919 392.475 371.267 394.097 361.111C395.648 351.404 396.215 323.543 396.215 256.988C396.215 173.516 395.558 154.777 392.279 144.717C389.774 137.034 381.662 127.243 373.561 122.127C364.28 116.265 359.386 115.54 322.204 114.511C288.307 113.574 174.945 114.088 160.044 115.247C146.724 116.283 143.604 116.963 136.787 120.319C132.083 122.634 129.591 124.483 125.14 128.963C118.471 135.676 114.853 142.254 113.169 150.729C111.277 160.251 110.71 184.759 110.71 256.988C110.71 328.869 111.266 353.263 113.128 363.121C115.216 374.173 122.301 384.442 132.376 391.019C142.533 397.649 148.681 398.643 184.368 399.424C217.603 400.152 330.623 399.634 345.275 398.687Z" fill="black"/>
<path d="M164.252 367.134C154.116 364.852 145.853 356.671 143.507 346.596C141.976 340.024 141.922 181.438 143.448 175.049C145.827 165.091 154.659 156.605 164.849 154.487C172.58 152.88 334.351 152.875 341.986 154.481C348.826 155.92 354.553 159.908 358.943 166.289C364.717 174.682 364.507 171.114 364.507 261.064C364.506 327.908 364.351 340.191 363.453 344.462C361.641 353.076 357.931 358.745 351.231 363.139C342.788 368.676 346.834 368.461 252.506 368.391C177.216 368.335 169.072 368.22 164.252 367.134ZM340.028 347.115C344.442 344.223 344.139 350.315 344.282 261.516C344.425 172.844 344.672 178.214 340.308 174.982C338.364 173.543 337.537 173.504 304.438 173.306L270.558 173.104L271.13 174.717C271.444 175.603 271.819 191.066 271.963 209.079C272.187 237.166 272.064 242.55 271.098 246.892C269.616 253.555 265.442 259.642 259.539 263.75C252.03 268.976 249.587 269.202 204.814 268.818C183.875 268.639 165.711 268.263 164.451 267.982L162.159 267.472V304.237C162.159 343.802 162.236 344.695 165.801 346.707C166.707 347.217 169.668 347.841 172.383 348.093C175.097 348.344 213.5 348.507 257.724 348.455C333.262 348.365 338.245 348.284 340.028 347.115ZM247.822 247.89C252.348 245.625 252.402 245.192 252.404 211.382C252.405 178.133 252.319 177.339 248.441 174.798C246.595 173.588 244.056 173.509 207.282 173.509C170.509 173.509 167.969 173.588 166.124 174.798C162.247 177.337 162.159 178.146 162.159 211.229C162.159 242.997 162.305 244.676 165.282 247.145C167.31 248.827 175.003 249.145 211.16 249.045C240.334 248.963 246.036 248.784 247.822 247.89Z" fill="black"/>
</svg>
