<?xml version="1.0" encoding="UTF-8" standalone="no"?>
<!-- Created with Inkscape (http://www.inkscape.org/) -->

<svg
   width="512"
   height="512"
   viewBox="0 0 135.46666 135.46667"
   version="1.1"
   id="svg5"
   xml:space="preserve"
   inkscape:export-filename="slopeicon.svg"
   inkscape:export-xdpi="96"
   inkscape:export-ydpi="96"
   xmlns:inkscape="http://www.inkscape.org/namespaces/inkscape"
   xmlns:sodipodi="http://sodipodi.sourceforge.net/DTD/sodipodi-0.dtd"
   xmlns="http://www.w3.org/2000/svg"
   xmlns:svg="http://www.w3.org/2000/svg"><sodipodi:namedview
     id="namedview7"
     pagecolor="#ffffff"
     bordercolor="#000000"
     borderopacity="0.25"
     inkscape:showpageshadow="2"
     inkscape:pageopacity="0.0"
     inkscape:pagecheckerboard="0"
     inkscape:deskcolor="#d1d1d1"
     inkscape:document-units="mm"
     showgrid="false" /><defs
     id="defs2" /><g
     inkscape:label="Lager 1"
     inkscape:groupmode="layer"
     id="layer1"><path
       style="fill:#ff6600;stroke-width:0.114337"
       d="M 6.5381924,106.73827 C 6.7873634,94.026436 8.0124664,84.903751 10.651567,76.108157 15.671636,59.377275 25.446831,47.956205 39.247998,42.696879 c 3.945426,-1.503521 7.759923,-2.405886 12.710081,-3.006723 2.074792,-0.251836 11.151417,-0.405453 24.592406,-0.416222 l 9.479156,-0.0076 v 5.059379 5.059376 l -8.348624,0.08133 c -4.591745,0.04475 -11.140375,0.08328 -14.552509,0.08565 -3.412135,0.0022 -7.213214,0.05326 -8.44684,0.11307 -4.350355,0.210936 -9.238138,1.276013 -13.347543,2.908511 -9.646047,3.83198 -16.944946,11.841092 -21.094941,23.147563 -2.760692,7.521378 -4.26417,16.102879 -4.699721,26.824907 -0.06426,1.58199 -0.143968,3.49599 -0.17712,4.25333 l -0.06028,1.37696 H 10.906032 6.5100014 Z"
       id="path331" /><path
       style="fill:#e3e2db;stroke-width:0.123795"
       d="m 72.043931,107.77866 c 0.0033,-1.03779 0.264221,-6.70729 0.378829,-8.231274 0.88611,-11.782643 3.443111,-21.672339 7.87993,-30.477115 3.107516,-6.166809 6.269168,-10.500526 10.850811,-14.873358 3.552606,-3.390688 7.099624,-5.880558 11.355649,-7.971235 6.38079,-3.134409 13.15506,-4.74934 21.32098,-5.082725 l 1.89183,-0.07723 0.0516,2.435664 c 0.0538,2.541085 -0.0307,6.225013 -0.14536,6.336215 -0.0365,0.03543 -1.2761,0.152028 -2.7546,0.25907 -1.4785,0.107038 -3.27978,0.278004 -4.00286,0.379922 -8.98244,1.266054 -16.41503,4.924826 -22.446521,11.049551 -8.291419,8.419568 -13.485434,21.599527 -14.863002,37.715257 -0.130813,1.530278 -0.369528,6.728008 -0.375233,8.170068 l -0.0033,0.76499 h -4.570047 -4.570113 z"
       id="path402" /></g></svg>
