<svg width="512" height="512" viewBox="0 0 512 512" fill="none" xmlns="http://www.w3.org/2000/svg">
<path d="M11.988 425.969C12.8235 382.891 16.9315 351.975 25.781 322.168C42.6143 265.47 75.3926 226.765 121.671 208.942C134.901 203.847 147.692 200.789 164.29 198.753C171.248 197.899 201.684 197.379 246.754 197.342L278.54 197.317V214.462V231.608L250.545 231.883C235.148 232.035 213.189 232.165 201.747 232.173C190.306 232.181 177.56 232.354 173.423 232.557C158.836 233.271 142.446 236.881 128.666 242.413C96.3209 255.399 71.8461 282.541 57.9303 320.857C48.6731 346.346 43.6316 375.427 42.1711 411.763C41.9557 417.124 41.6884 423.61 41.5772 426.177L41.3751 430.843H26.6343H11.8934L11.988 425.969Z" fill="#86B535"/>
<path d="M231.643 429.495C231.654 425.978 232.529 406.765 232.913 401.6C235.884 361.671 244.458 328.156 259.336 298.318C269.756 277.419 280.358 262.733 295.721 247.914C307.634 236.424 319.528 227.986 333.799 220.901C355.195 210.279 377.911 204.806 405.293 203.676L411.636 203.414L411.809 211.669C411.99 220.28 411.706 232.764 411.322 233.141C411.2 233.261 407.043 233.656 402.085 234.019C397.127 234.382 391.087 234.961 388.663 235.307C358.543 239.597 333.62 251.996 313.395 272.752C285.592 301.285 268.175 345.95 263.556 400.564C263.117 405.749 262.317 423.364 262.298 428.251L262.287 430.843H246.962H231.638L231.643 429.495Z" fill="#C1E3EE"/>
</svg>
