<?xml version="1.0" encoding="UTF-8" standalone="no"?>
<!-- Created with Inkscape (http://www.inkscape.org/) -->

<svg
   width="512"
   height="512"
   viewBox="0 0 512 512"
   version="1.1"
   id="svg5"
   xml:space="preserve"
   xmlns="http://www.w3.org/2000/svg"
   xmlns:svg="http://www.w3.org/2000/svg"><defs
     id="defs2" /><g
     id="layer4"
     style="display:none"><path
       style="display:inline;fill:#f2f2f2;fill-opacity:1;stroke-width:0.482336"
       d="m 181.35845,423.72997 c -29.82313,-1.06336 -43.04351,-2.93083 -53.90831,-7.61489 -16.63655,-7.17241 -30.659461,-22.16193 -36.668969,-39.19658 -5.661198,-16.04733 -6.645054,-37.99083 -6.20543,-138.40319 0.248105,-56.66829 0.452071,-65.99 1.767779,-80.79133 1.426571,-16.04853 4.572332,-26.21184 11.243202,-36.32452 5.290768,-8.02052 12.070218,-14.86679 19.862168,-20.05793 11.7622,-7.836197 21.95553,-10.551703 46.54546,-12.399731 10.5777,-0.794955 145.07244,-1.176488 163.51201,-0.463849 16.54684,0.63949 28.76685,1.656866 35.4938,2.955035 13.44464,2.594547 23.90351,7.973726 33.61063,17.286535 12.76663,12.24804 18.7922,24.14751 21.27304,42.01058 1.34796,9.70596 1.73629,16.56915 2.27879,40.27508 0.64384,28.13366 0.29635,138.44135 -0.47405,150.48893 -1.43136,22.38352 -3.0872,31.11024 -7.81988,41.2128 -6.08747,12.99459 -18.31817,25.58783 -31.06417,31.98499 -10.32058,5.17985 -21.1935,7.26939 -44.37494,8.52786 -11.27941,0.61234 -140.30119,1.03685 -155.07113,0.51021 z m 150.48894,-26.02485 c 14.55604,-0.60706 24.88337,-1.60373 29.99279,-2.89455 13.54006,-3.42069 25.88133,-15.74134 29.36979,-29.32072 2.79523,-10.88088 3.36375,-25.32261 3.66938,-93.211 0.32978,-73.25473 -0.36069,-106.33692 -2.50208,-119.88074 -1.75278,-11.08596 -5.50781,-18.26594 -13.35016,-25.52675 -7.10258,-6.5759 -14.21493,-9.72476 -24.99225,-11.06486 -9.68994,-1.20488 -22.91792,-1.67866 -63.42723,-2.27172 -52.78951,-0.77284 -121.82535,0.23614 -137.70702,2.01262 -14.35117,1.60529 -22.62415,5.79222 -31.12065,15.75007 -6.69663,7.8484 -9.11013,15.43288 -10.32792,32.45571 -1.08543,15.17259 -1.58676,57.30907 -1.33137,111.90202 0.3486,74.51855 1.07401,85.94837 6.13462,96.65918 2.01782,4.27071 6.51242,10.19782 9.99624,13.18222 11.87622,10.17369 19.80048,11.76366 63.22398,12.68565 23.90262,0.50751 127.05097,0.16183 142.37188,-0.47713 z"
       id="path1485" /><path
       style="display:inline;fill:#f8a502;fill-opacity:1;stroke-width:0.482336"
       d="m 178.70561,369.2209 c -16.30794,-0.38204 -18.57465,-0.843 -24.60555,-5.0038 -3.84727,-2.65429 -4.70011,-3.5304 -7.58523,-7.79222 -3.21162,-4.74413 -3.26182,-4.86822 -4.18685,-10.34857 -2.29392,-13.59048 -2.91166,-32.93733 -2.91843,-91.40274 -0.006,-54.70429 0.6808,-76.23513 2.70154,-84.65002 2.68034,-11.16164 12.84902,-21.51017 23.89073,-24.31328 8.6792,-2.20335 24.20853,-2.685 86.50124,-2.6829 74.72474,0.003 83.23801,0.4721 92.84974,5.12136 2.90201,1.40372 4.58152,2.71698 8.49132,6.63962 6.97261,6.99551 9.02339,11.57043 10.28887,22.95258 1.16995,10.52293 1.56765,37.5685 1.32466,90.08244 -0.27481,59.3909 -0.53186,65.59147 -3.28288,79.19043 -0.73863,3.65125 -1.35904,5.2571 -3.12687,8.09346 -3.16283,5.07456 -4.18465,6.14624 -8.85355,9.28559 -3.97102,2.67012 -4.47438,2.86724 -10.37263,4.06212 l -6.19907,1.25582 -71.18815,-0.0981 c -39.15349,-0.0539 -76.83149,-0.23026 -83.72889,-0.39184 z"
       id="path1487" /></g><g
     id="layer1"
     style="display:none"><path
       style="display:inline;fill:#f2f2f2;fill-opacity:1;stroke-width:0.705041"
       d="m 174.85023,424.74681 c -27.28557,-0.84962 -36.79861,-2.41803 -48.29533,-7.96245 -20.35943,-9.81855 -34.93814,-28.96583 -38.765506,-50.91357 -2.145586,-12.3037 -2.603972,-36.31372 -2.294103,-120.16392 0.315006,-85.24066 0.484019,-90.36726 3.390713,-102.8493 5.741755,-24.65646 27.774316,-45.949124 52.892186,-51.115965 12.49077,-2.5694 24.73948,-2.886869 111.68413,-2.894691 86.82083,-0.0078 97.40927,0.263923 111.04017,2.84966 23.21563,4.40393 44.10144,22.768136 51.89478,45.629396 4.07993,11.96819 4.97982,26.39728 5.55017,88.99226 0.42681,46.84293 -0.52891,117.72501 -1.75865,130.43263 -1.53808,15.8938 -4.1998,24.08264 -11.38428,35.02401 -7.34842,11.19103 -16.87765,19.50507 -28.99476,25.29733 -11.23376,5.36998 -19.85094,6.70375 -49.85045,7.71586 -22.79067,0.7689 -130.00657,0.74039 -155.10907,-0.0412 z m 170.42445,-26.05969 c 17.9403,-1.15943 26.0043,-3.87972 34.62372,-11.67984 7.83237,-7.08789 12.57646,-15.7402 14.19886,-25.89602 1.55078,-9.70749 2.11733,-37.56861 2.11733,-104.12373 0,-83.47119 -0.65697,-102.21085 -3.9359,-112.27036 -2.50428,-7.68291 -10.61708,-17.47429 -18.71716,-22.58982 -9.28198,-5.86194 -14.17522,-6.58758 -51.35769,-7.616 -33.89653,-0.93754 -147.25905,-0.42326 -162.15948,0.73565 -13.32011,1.036 -16.44037,1.71643 -23.25762,5.07175 -4.7041,2.31527 -7.19533,4.16438 -11.6466,8.6447 -6.6692,6.7127 -10.28679,13.29019 -11.97075,21.76517 -1.8921,9.52251 -2.45933,34.03038 -2.45933,106.25891 0,71.88102 0.55582,96.27566 2.41823,106.13392 2.08775,11.05112 9.17303,21.32028 19.24787,27.89721 10.15703,6.63057 16.30518,7.62457 51.99212,8.40574 33.235,0.7275 146.25451,0.20964 160.9064,-0.73728 z"
       id="path1341" /><path
       style="display:inline;fill:#f2f2f2;fill-opacity:1;stroke-width:0.705041"
       d="m 164.25231,367.13442 c -10.13585,-2.2824 -18.39921,-10.46296 -20.74577,-20.53791 -1.53078,-6.57243 -1.58484,-165.15838 -0.0585,-171.54714 2.37928,-9.95872 11.21139,-18.44453 21.40141,-20.56227 7.73091,-1.60668 169.50131,-1.61182 177.13686,-0.006 6.83931,1.43869 12.56658,5.42702 16.95664,11.80817 5.77395,8.3927 5.56451,4.82525 5.56389,94.77452 -4.8e-4,66.8439 -0.15574,79.12749 -1.05419,83.39855 -1.81204,8.61414 -5.52147,14.28294 -12.2212,18.67656 -8.44354,5.53721 -4.39698,5.32193 -98.72587,5.2522 -75.28965,-0.0557 -83.43318,-0.17166 -88.2533,-1.25705 z m 175.77526,-20.01895 c 4.41451,-2.89288 4.11171,3.1991 4.2547,-85.59897 0.14279,-88.67209 0.38942,-83.30247 -3.97451,-86.53412 -1.94391,-1.43954 -2.77048,-1.47816 -35.86991,-1.67588 l -33.88015,-0.20239 0.57197,1.61247 c 0.31457,0.88686 0.68959,16.3499 0.83335,34.36231 0.22418,28.08727 0.10101,33.47074 -0.86513,37.81335 -1.48228,6.66259 -5.65632,12.7502 -11.55873,16.85783 -7.50945,5.226 -9.95182,5.4522 -54.72468,5.06841 -20.93973,-0.17949 -39.10335,-0.55592 -40.36361,-0.83649 l -2.29139,-0.51014 v 36.76481 c 0,39.56538 0.0766,40.45857 3.64178,42.46995 0.90532,0.51076 3.86691,1.13453 6.58132,1.38616 2.71441,0.25163 41.11797,0.4145 85.34124,0.36192 75.53809,-0.0898 80.52085,-0.17087 82.30375,-1.33922 z m -92.20558,-99.22554 c 4.52604,-2.26475 4.58046,-2.69835 4.58168,-36.50772 0.001,-33.24966 -0.0848,-34.04358 -3.963,-36.58466 -1.84539,-1.20915 -4.38505,-1.28866 -41.15855,-1.28866 -36.7735,0 -39.31316,0.0795 -41.15855,1.28866 -3.87607,2.5397 -3.96409,3.34858 -3.96409,36.43104 0,31.76795 0.14603,33.44763 3.12248,35.91615 2.02814,1.68203 9.72128,2.00061 45.87789,1.89985 29.17401,-0.0813 34.87598,-0.2609 36.66214,-1.15466 z"
       id="path1343" /></g><g
     id="layer3"
     style="display:none"
     transform="matrix(4.5100933,0,0,4.5100933,-48.24021,-3.1826798)"><path
       style="display:inline;fill:#f8a502;fill-opacity:1;stroke-width:0.263878"
       d="m 51.644224,363.91051 c -1.153161,-0.0996 -1.887995,-0.29563 -2.063196,-0.55047 -0.291869,-0.42454 -0.15929,-13.94999 0.301336,-30.74179 1.671193,-60.92222 8.950754,-98.7165 23.698481,-123.03862 11.389185,-18.78317 29.160405,-29.96752 55.191635,-34.73495 9.49694,-1.7393 16.08596,-2.27524 30.14806,-2.4522 l 11.80854,-0.1486 v 14.11038 14.11038 l -9.3017,0.16412 c -10.11581,0.1785 -14.36342,0.43335 -21.04427,1.26263 -16.33372,2.02746 -28.83759,6.95668 -36.08366,14.22471 -6.757865,6.77835 -11.79998,16.84465 -16.007433,31.95795 -5.098572,18.31421 -7.986693,40.07266 -9.383162,70.6906 -0.239095,5.24221 -0.653368,23.15717 -0.889504,38.46593 -0.05433,3.52262 -0.1457,6.44507 -0.203033,6.49434 -0.196523,0.16889 -24.379463,0.34038 -26.172094,0.18559 z"
       id="path1221"
       transform="scale(0.26458333)" /><path
       style="display:inline;fill:#f2f2f2;stroke-width:0.263878"
       d="m 145.79261,363.97101 c -2.36953,-0.20641 -2.24317,-0.0341 -2.24126,-3.05687 0.004,-6.29023 1.07855,-22.29298 1.84635,-27.49621 1.73308,-11.74475 4.62344,-20.26054 9.19259,-27.08384 4.09599,-6.11671 7.75974,-9.47249 16.75136,-15.34325 12.4832,-8.15047 14.78419,-9.94768 19.8476,-15.50218 10.49134,-11.50887 15.8872,-22.86335 18.43737,-38.79767 0.53903,-3.36808 0.89016,-15.93884 1.11408,-39.88537 l 0.1818,-19.44243 1.87113,-0.14184 c 1.02913,-0.078 8.16463,-0.20954 15.85668,-0.29229 7.69204,-0.0827 26.86938,-0.32235 42.6163,-0.53245 15.74692,-0.2101 29.35472,-0.38379 30.23956,-0.38598 l 1.60879,-0.004 0.16277,23.81499 c 0.19994,29.25414 0.49086,34.97393 2.18876,43.03417 3.41772,16.22452 14.14749,32.561 27.35198,41.64442 1.33961,0.92152 4.81121,3.20472 7.71467,5.07377 8.44035,5.43333 12.79971,8.98896 16.30488,13.29878 6.16733,7.58312 10.27527,18.4842 11.9053,31.59263 0.80118,6.44292 1.46776,18.5764 1.47505,26.84958 l 0.002,2.83669 h -12.24571 -12.2457 l -0.15135,-2.44087 c -0.0832,-1.34248 -0.22111,-4.40016 -0.30636,-6.79486 -0.52723,-14.80926 -2.25548,-25.75573 -5.09221,-32.25307 -1.83732,-4.20829 -4.64022,-6.79254 -13.23467,-12.20231 -11.02782,-6.94146 -16.99112,-11.7373 -22.98503,-18.48515 -14.43607,-16.25191 -22.54378,-34.36666 -24.6224,-55.01294 -0.57088,-5.67041 -0.89901,-13.32494 -1.11137,-25.92602 l -0.18122,-10.75303 H 257.01813 235.9914 l -0.17225,10.48915 c -0.32003,19.48699 -1.02618,28.55307 -2.86206,36.74502 -3.91417,17.46553 -11.15642,31.39323 -23.36306,44.92988 -5.24365,5.815 -11.54896,11.00085 -19.64413,16.15649 -10.33201,6.58023 -12.71839,8.48987 -14.95803,11.96972 -3.30113,5.12917 -5.32346,15.19538 -6.10425,30.38409 -0.14548,2.83009 -0.26565,6.40556 -0.26704,7.94548 -10e-4,1.53992 -0.078,3.35079 -0.17033,4.02414 l -0.16781,1.22428 -10.71716,-0.0444 c -5.89444,-0.0244 -11.19214,-0.0857 -11.77267,-0.13631 z"
       id="path1225"
       transform="scale(0.26458333)" /><path
       style="display:inline;fill:#f8a502;fill-opacity:1;stroke-width:0.263878"
       d="m 437.59651,363.92381 c -1.62132,-0.0924 -3.03134,-0.25199 -3.13339,-0.3547 -0.10204,-0.10271 -0.34332,-8.11801 -0.53618,-17.81177 -0.49845,-25.05387 -0.97573,-35.70036 -2.23924,-49.95008 -3.54982,-40.03452 -11.37685,-66.60513 -23.29563,-79.08221 -1.28373,-1.34388 -3.12428,-3.0263 -4.0901,-3.73871 -6.70274,-4.94412 -17.08254,-8.73165 -29.33732,-10.70499 -7.52881,-1.21234 -19.12935,-1.89405 -27.89908,-1.63949 l -5.60741,0.16276 v -14.51834 -14.51834 l 2.70475,0.13595 c 1.48762,0.0748 5.73275,0.1993 9.43364,0.27673 12.56541,0.26287 20.42023,0.9274 28.49883,2.41103 23.99802,4.40722 40.82077,13.61135 52.02198,28.46249 15.32147,20.314 23.88913,53.35363 26.99463,104.09988 0.87732,14.33619 1.45882,33.6011 1.46356,48.48759 l 0.003,8.24619 -7.32262,10e-4 c -4.02744,5.3e-4 -8.98505,0.0464 -11.01691,0.10199 -2.03186,0.0556 -5.02082,0.0254 -6.64214,-0.0669 z"
       id="path1227"
       transform="scale(0.26458333)" /></g><g
     id="layer1-4"
     transform="matrix(3.3532118,0,0,3.3888575,-9.9359657,64.248537)"
     style="display:inline"><path
       style="display:inline;fill:#f8a502;fill-opacity:1;stroke-width:0.114337"
       d="M 6.5381924,106.73827 C 6.7873634,94.026436 8.0124664,84.903751 10.651567,76.108157 15.671636,59.377275 25.446831,47.956205 39.247998,42.696879 c 3.945426,-1.503521 7.759923,-2.405886 12.710081,-3.006723 2.074792,-0.251836 11.151417,-0.405453 24.592406,-0.416222 l 9.479156,-0.0076 v 5.059379 5.059376 l -8.348624,0.08133 c -4.591745,0.04475 -11.140375,0.08328 -14.552509,0.08565 -3.412135,0.0022 -7.213214,0.05326 -8.44684,0.11307 -4.350355,0.210936 -9.238138,1.276013 -13.347543,2.908511 -9.646047,3.83198 -16.944946,11.841092 -21.094941,23.147563 -2.760692,7.521378 -4.26417,16.102879 -4.699721,26.824907 -0.06426,1.58199 -0.143968,3.49599 -0.17712,4.25333 l -0.06028,1.37696 H 10.906032 6.5100014 Z"
       id="path331" /><path
       style="display:inline;fill:#f2f2f2;stroke-width:0.123795"
       d="m 72.043931,107.77866 c 0.0033,-1.03779 0.264221,-6.70729 0.378829,-8.231274 0.88611,-11.782643 3.443111,-21.672339 7.87993,-30.477115 3.107516,-6.166809 6.269168,-10.500526 10.850811,-14.873358 3.552606,-3.390688 7.099624,-5.880558 11.355649,-7.971235 6.38079,-3.134409 13.15506,-4.74934 21.32098,-5.082725 l 1.89183,-0.07723 0.0516,2.435664 c 0.0538,2.541085 -0.0307,6.225013 -0.14536,6.336215 -0.0365,0.03543 -1.2761,0.152028 -2.7546,0.25907 -1.4785,0.107038 -3.27978,0.278004 -4.00286,0.379922 -8.98244,1.266054 -16.41503,4.924826 -22.446521,11.049551 -8.291419,8.419568 -13.485434,21.599527 -14.863002,37.715257 -0.130813,1.530278 -0.369528,6.728008 -0.375233,8.170068 l -0.0033,0.76499 h -4.570047 -4.570113 z"
       id="path402" /></g></svg>
