<svg width="494" height="231" viewBox="0 0 494 231" fill="none" xmlns="http://www.w3.org/2000/svg">
<path d="M3.38661 230.07C2.01055 229.951 1.13368 229.717 0.924609 229.413C0.576323 228.907 0.734527 212.767 1.28419 192.729C3.27842 120.031 11.9651 74.9312 29.5635 45.9078C43.1541 23.4939 64.3605 10.1477 95.4234 4.4587C106.756 2.3832 114.619 1.74367 131.399 1.53251L145.49 1.35518V18.193V35.0309L134.39 35.2267C122.319 35.4397 117.251 35.7438 109.278 36.7334C89.7874 39.1528 74.8666 45.0348 66.2199 53.7077C58.1557 61.7963 52.139 73.8083 47.1182 91.843C41.0341 113.697 37.5878 139.661 35.9214 176.198C35.6361 182.453 35.1417 203.831 34.8599 222.099C34.7951 226.303 34.6861 229.79 34.6176 229.849C34.3831 230.05 5.52575 230.255 3.38661 230.07Z" fill="#86B535"/>
<path d="M115.733 230.142C112.906 229.896 113.057 230.102 113.059 226.495C113.064 218.988 114.346 199.892 115.262 193.683C117.33 179.668 120.779 169.507 126.232 161.364C131.119 154.065 135.491 150.061 146.221 143.055C161.117 133.329 163.863 131.185 169.905 124.557C182.424 110.823 188.863 97.274 191.906 78.2596C192.55 74.2405 192.969 59.2399 193.236 30.6646L193.453 7.46401L195.685 7.29475C196.914 7.20167 205.428 7.04472 214.607 6.94597C223.786 6.84728 246.67 6.5613 265.461 6.31059C284.252 6.05988 300.49 5.85263 301.546 5.85002L303.466 5.84525L303.66 34.2636C303.898 69.1724 304.245 75.9978 306.272 85.616C310.35 104.977 323.154 124.471 338.911 135.31C340.509 136.41 344.652 139.134 348.116 141.365C358.188 147.848 363.39 152.091 367.573 157.234C374.932 166.283 379.834 179.291 381.78 194.933C382.736 202.622 383.531 217.101 383.54 226.973L383.542 230.358H368.929H354.317L354.136 227.445C354.037 225.843 353.872 222.194 353.77 219.337C353.141 201.665 351.079 188.603 347.694 180.849C345.501 175.828 342.157 172.744 331.901 166.288C318.742 158.005 311.626 152.282 304.473 144.23C287.247 124.837 277.572 103.221 275.091 78.5836C274.41 71.8171 274.019 62.683 273.765 47.6462L273.549 34.8146H248.458H223.367L223.162 47.3313C222.78 70.585 221.937 81.4035 219.746 91.1789C215.076 112.02 206.434 128.64 191.867 144.794C185.61 151.733 178.086 157.921 168.426 164.073C156.097 171.925 153.249 174.204 150.577 178.356C146.638 184.477 144.224 196.489 143.293 214.614C143.119 217.991 142.976 222.257 142.974 224.095C142.973 225.933 142.881 228.093 142.771 228.897L142.57 230.358L129.782 230.305C122.748 230.276 116.426 230.203 115.733 230.142Z" fill="#C1E3EE"/>
<path d="M463.942 230.086C462.007 229.976 460.325 229.785 460.203 229.663C460.081 229.54 459.793 219.976 459.563 208.408C458.968 178.511 458.399 165.807 456.891 148.803C452.655 101.03 443.315 69.3232 429.092 54.4343C427.56 52.8307 425.364 50.8231 424.212 49.973C416.213 44.0732 403.827 39.5535 389.203 37.1988C380.219 35.7521 366.376 34.9386 355.912 35.2423L349.22 35.4366V18.1119V0.787231L352.448 0.949449C354.223 1.03871 359.289 1.18728 363.705 1.27967C378.699 1.59336 388.072 2.38633 397.713 4.15674C426.349 9.41586 446.424 20.3991 459.79 38.1209C478.073 62.3615 488.297 101.788 492.003 162.343C493.05 179.45 493.744 202.439 493.749 220.203L493.753 230.043L485.015 230.044C480.209 230.045 474.293 230.1 471.868 230.166C469.444 230.232 465.876 230.196 463.942 230.086Z" fill="#86B535"/>
</svg>
